#!OML:ASF X:\für Bonn\!DataBase\2005_08_12_Daniel\c3d\Daniel.ASF
:FULLY-SPECIFIED
:DEGREES
93
root 2.0695 17.3172 15.5952 172.349 -239.711 541.328
lowerback 5.9608 -4.15021 -2.77043
upperback 1.6613 -5.72901 -5.87518
thorax -1.95041 -2.82114 -4.08671
lowerneck 9.55391 -10.078 -8.16938
upperneck 10.2453 -14.615 8.90858
head 2.78841 -7.42302 3.91066
rclavicle 6.38099e-014 2.70347e-014
rhumerus 27.2257 -15.5788 -39.4874
rradius 27.803
rwrist 6.60898
rhand -19.3567 13.0512
rfingers 7.12502
rthumb 6.96084 -16.8144
lclavicle 6.38099e-014 2.70347e-014
lhumerus -31.4349 51.5614 58.8052
lradius 14.9051
lwrist -51.3503
lhand -16.1457 -5.22137
lfingers 7.12502
lthumb 10.0596 24.5182
rfemur -2.67394 9.82385 8.25279
rtibia 23.9401
rfoot -12.077 -2.69861
rtoes -15.2172
lfemur 5.9299 -18.7153 -12.762
ltibia 33.5333
lfoot -20.4063 -24.5233
ltoes -7.06239
94
root 2.04833 17.3348 15.7153 172.292 -240.414 541.04
lowerback 5.89138 -4.22459 -2.50076
upperback 1.60908 -5.81381 -5.89154
thorax -1.99915 -2.86588 -4.24913
lowerneck 9.57304 -10.1452 -8.31361
upperneck 10.2411 -14.7261 9.02043
head 2.81248 -7.48195 3.96191
rclavicle 7.07673e-014 -2.54444e-014
rhumerus 27.1341 -15.9998 -39.2352
rradius 27.3429
rwrist 6.9716
rhand -19.1047 12.9585
rfingers 7.12502
rthumb 7.20413 -16.8989
lclavicle 7.07673e-014 -2.54444e-014
lhumerus -32.851 52.4185 57.1707
lradius 14.846
lwrist -51.3207
lhand -16.328 -5.33422
lfingers 7.12502
lthumb 9.88376 24.4138
rfemur -2.24817 10.1955 8.82148
rtibia 23.6537
rfoot -12.6442 -3.13391
rtoes -14.3848
lfemur 5.39576 -18.1387 -12.089
ltibia 34.0244
lfoot -19.9481 -23.4427
ltoes -8.03866
95
root 2.0277 17.3519 15.8328 172.296 -241.076 540.8
lowerback 5.79231 -4.29421 -2.25829
upperback 1.54481 -5.8932 -5.91157
thorax -2.04196 -2.90811 -4.40262
lowerneck 9.65717 -10.2089 -8.39548
upperneck 10.1824 -14.8236 9.08746
head 2.80157 -7.53488 3.99659
rclavicle -7.16619e-014 7.15625e-014
rhumerus 27.0561 -16.4018 -39.0066
rradius 26.9199
rwrist 7.37683
rhand -18.7246 12.9256
rfingers 7.12502
rthumb 7.57101 -16.9189
lclavicle -7.16619e-014 7.15625e-014
lhumerus -34.2523 52.8903 55.6664
lradius 14.9201
lwrist -51.009
lhand -16.2402 -5.46236
lfingers 7.12502
lthumb 9.96842 24.2816
rfemur -1.87753 10.6684 9.38102
rtibia 23.3898
rfoot -13.2475 -3.65448
rtoes -13.6893
lfemur 4.8455 -17.5231 -11.4685
ltibia 34.5145
lfoot -19.406 -22.256
ltoes -8.88214
96
root 2.0069 17.3684 15.9479 172.242 -241.715 540.537
lowerback 5.73616 -4.35526 -2.02582
upperback 1.48578 -5.96395 -5.92581
thorax -2.10172 -2.94603 -4.54232
lowerneck 9.74429 -10.2742 -8.44383
upperneck 10.1339 -14.9207 9.15115
head 2.79064 -7.58635 4.02543
rclavicle 1.12612e-013 2.8625e-014
rhumerus 26.982 -16.8144 -38.7665
rradius 26.517
rwrist 7.81892
rhand -18.2246 12.9389
rfingers 7.12502
rthumb 8.05357 -16.8876
lclavicle 1.12612e-013 2.8625e-014
lhumerus -35.6697 53.2285 54.1805
lradius 15.0186
lwrist -50.7051
lhand -15.9503 -5.64184
lfingers 7.12502
lthumb 10.2481 24.0885
rfemur -1.50092 11.1891 9.98273
rtibia 23.1674
rfoot -13.8652 -4.2486
rtoes -13.1512
lfemur 4.34668 -16.9057 -10.8846
ltibia 34.996
lfoot -18.8109 -20.9443
ltoes -9.78975
97
root 1.9841 17.3837 16.0594 172.232 -242.342 540.297
lowerback 5.66005 -4.41627 -1.8223
upperback 1.4267 -6.0352 -5.94552
thorax -2.14862 -2.98416 -4.67327
lowerneck 9.87683 -10.3411 -8.42597
upperneck 10.0313 -15.0115 9.19404
head 2.74963 -7.6345 4.04307
rclavicle 2.45499e-014 -6.36111e-015
rhumerus 26.9013 -17.1715 -38.4818
rradius 26.1503
rwrist 8.23536
rhand -17.6065 12.9797
rfingers 7.12502
rthumb 8.65006 -16.8231
lclavicle 2.45499e-014 -6.36111e-015
lhumerus -36.9797 53.4348 52.7493
lradius 15.0185
lwrist -50.4041
lhand -15.5678 -5.77189
lfingers 7.12502
lthumb 10.6171 23.9399
rfemur -1.19895 11.7241 10.58
rtibia 22.9923
rfoot -14.5043 -4.90912
rtoes -12.6613
lfemur 3.80937 -16.2368 -10.3207
ltibia 35.4689
lfoot -18.3884 -19.618
ltoes -10.7349
98
root 1.96359 17.3975 16.1678 172.232 -242.944 540.09
lowerback 5.58117 -4.47145 -1.64936
upperback 1.37153 -6.09996 -5.96138
thorax -2.18634 -3.01888 -4.78423
lowerneck 10.0619 -10.4129 -8.33102
upperneck 9.87822 -15.0963 9.17464
head 2.67487 -7.67981 4.03614
rclavicle 6.69904e-014 3.18055e-015
rhumerus 26.8052 -17.4755 -38.1533
rradius 25.8275
rwrist 8.63249
rhand -16.8944 12.9876
rfingers 7.12502
rthumb 9.3372 -16.7856
lclavicle 6.69904e-014 3.18055e-015
lhumerus -38.4388 53.7881 51.1019
lradius 14.9363
lwrist -50.5077
lhand -15.0946 -5.96517
lfingers 7.12502
lthumb 11.0735 23.7227
rfemur -0.911735 12.2467 11.1647
rtibia 22.8576
rfoot -15.1307 -5.6041
rtoes -12.3949
lfemur 3.31549 -15.5878 -9.83444
ltibia 35.9299
lfoot -17.9589 -18.2853
ltoes -11.4958
99
root 1.94697 17.411 16.2735 172.268 -243.53 539.935
lowerback 5.46876 -4.52586 -1.49397
upperback 1.33447 -6.16185 -5.97905
thorax -2.18512 -3.0519 -4.89115
lowerneck 10.1944 -10.4896 -8.21297
upperneck 9.7403 -15.1822 9.13569
head 2.60979 -7.72362 4.01666
rclavicle -2.43511e-014 -3.18055e-015
rhumerus 26.7582 -17.808 -37.851
rradius 25.5151
rwrist 9.11908
rhand -16.0895 12.9868
rfingers 7.12502
rthumb 10.1138 -16.7501
lclavicle -2.43511e-014 -3.18055e-015
lhumerus -39.9046 54.0944 49.4646
lradius 14.8447
lwrist -50.8291
lhand -14.5572 -6.13843
lfingers 7.12502
lthumb 11.5918 23.521
rfemur -0.643668 12.703 11.7164
rtibia 22.7616
rfoot -15.7475 -6.26636
rtoes -12.0151
lfemur 2.85192 -14.9222 -9.42866
ltibia 36.3744
lfoot -17.5995 -17.0052
ltoes -12.3574
100
root 1.93091 17.4236 16.3756 172.289 -244.098 539.768
lowerback 5.36782 -4.57784 -1.30276
upperback 1.30275 -6.21948 -6.01283
thorax -2.19047 -3.08317 -5.0347
lowerneck 10.2769 -10.5749 -8.0335
upperneck 9.64632 -15.2714 9.06017
head 2.55861 -7.76556 3.97349
rclavicle 4.99943e-014 -7.79236e-014
rhumerus 26.6609 -18.0572 -37.4827
rradius 25.2646
rwrist 9.48758
rhand -15.2031 12.9153
rfingers 7.12502
rthumb 10.9688 -16.7781
lclavicle 4.99943e-014 -7.79236e-014
lhumerus -41.418 54.4615 47.7074
lradius 14.7039
lwrist -51.4999
lhand -13.934 -6.28449
lfingers 7.12502
lthumb 12.1927 23.3402
rfemur -0.398973 13.1569 12.2744
rtibia 22.6858
rfoot -16.3743 -6.96791
rtoes -11.7665
lfemur 2.38075 -14.1757 -9.0451
ltibia 36.8002
lfoot -17.2295 -15.8087
ltoes -13.2796
101
root 1.91656 17.4357 16.4757 172.282 -244.634 539.595
lowerback 5.27476 -4.63486 -1.09356
upperback 1.28398 -6.28299 -6.05196
thorax -2.19031 -3.11752 -5.1935
lowerneck 10.3563 -10.6509 -7.83731
upperneck 9.51545 -15.3435 8.97713
head 2.49333 -7.79917 3.92738
rclavicle -6.4605e-015 1.59028e-015
rhumerus 26.5588 -18.2044 -37.0697
rradius 25.0531
rwrist 9.78992
rhand -14.3267 12.8474
rfingers 7.12502
rthumb 11.814 -16.7994
lclavicle -6.4605e-015 1.59028e-015
lhumerus -42.9275 54.7724 45.9479
lradius 14.5626
lwrist -52.3527
lhand -13.3497 -6.40122
lfingers 7.12502
lthumb 12.7561 23.1891
rfemur -0.147885 13.5994 12.8404
rtibia 22.6143
rfoot -16.9803 -7.67684
rtoes -11.5606
lfemur 1.95162 -13.3821 -8.69511
ltibia 37.2067
lfoot -16.8981 -14.6344
ltoes -14.1457
102
root 1.90162 17.4467 16.5719 172.332 -245.159 539.496
lowerback 5.21248 -4.68624 -0.899578
upperback 1.26928 -6.34109 -6.10027
thorax -2.20259 -3.14896 -5.35179
lowerneck 10.3874 -10.7315 -7.64137
upperneck 9.41753 -15.4212 8.88864
head 2.44533 -7.83403 3.87581
rclavicle 1.26228e-014 1.74931e-014
rhumerus 26.402 -18.2513 -36.5707
rradius 24.9404
rwrist 9.96691
rhand -13.4074 12.7117
rfingers 7.12502
rthumb 12.7005 -16.8821
lclavicle 1.26228e-014 1.74931e-014
lhumerus -44.6409 55.2689 43.931
lradius 14.3867
lwrist -53.7369
lhand -12.8243 -6.50304
lfingers 7.12502
lthumb 13.2625 23.055
rfemur 0.0910967 14.0091 13.3647
rtibia 22.5438
rfoot -17.5381 -8.3853
rtoes -11.3997
lfemur 1.53513 -12.6026 -8.42367
ltibia 37.5985
lfoot -16.5543 -13.4791
ltoes -14.7692
103
root 1.88816 17.4572 16.6637 172.353 -245.665 539.393
lowerback 5.16073 -4.74082 -0.659729
upperback 1.27836 -6.40073 -6.16922
thorax -2.20424 -3.18138 -5.55764
lowerneck 10.3603 -10.8155 -7.39852
upperneck 9.3344 -15.4959 8.77076
head 2.40456 -7.86472 3.8052
rclavicle -8.73659e-014 -1.90833e-014
rhumerus 26.0969 -17.9593 -35.802
rradius 24.987
rwrist 9.65967
rhand -12.5446 12.5005
rfingers 7.12502
rthumb 13.5321 -17.0398
lclavicle -8.73659e-014 -1.90833e-014
lhumerus -46.1943 55.6193 42.0675
lradius 14.2152
lwrist -55.1478
lhand -12.2968 -6.52917
lfingers 7.12502
lthumb 13.771 22.9951
rfemur 0.337105 14.4127 13.8832
rtibia 22.4782
rfoot -18.0964 -9.10028
rtoes -11.2982
lfemur 1.15288 -11.8251 -8.19906
ltibia 37.9722
lfoot -16.2667 -12.3279
ltoes -15.241
